<svg xmlns="http://www.w3.org/2000/svg" version="1.1" xmlns:xlink="http://www.w3.org/1999/xlink" width="1000" height="1000"><g clip-path="url(#SvgjsClipPath1561)"><rect width="1000" height="1000" fill="#441717"></rect><g transform="matrix(1.4,0,0,1.4,150,150)"><svg xmlns="http://www.w3.org/2000/svg" version="1" xmlns:xlink="http://www.w3.org/1999/xlink" width="500" zoomAndPan="magnify" viewBox="0 0 375 374.999991" height="500" preserveAspectRatio="xMidYMid meet"><defs><g></g><clipPath id="70a0ec0752"><path d="M 0.761719 30 L 94 30 L 94 163 L 0.761719 163 Z M 0.761719 30 " clip-rule="nonzero"></path></clipPath><clipPath id="7663fae08e"><rect x="0" width="370" y="0" height="219"></rect></clipPath><clipPath id="SvgjsClipPath1561"><rect width="1000" height="1000" x="0" y="0" rx="350" ry="350"></rect></clipPath></defs><g transform="matrix(1, 0, 0, 1, 5, 53)"><g clip-path="url(#7663fae08e)"><g clip-path="url(#70a0ec0752)"><g fill="#ffffff" fill-opacity="1"><g transform="translate(0.944068, 145.722903)"><g><path d="M 87.265625 -107.328125 C 88.523438 -106.359375 89.421875 -105.21875 89.953125 -103.90625 C 90.484375 -102.601562 91.039062 -101.273438 91.625 -99.921875 C 92.5 -98.367188 92.398438 -96.644531 91.328125 -94.75 C 90.265625 -92.863281 89.296875 -91.238281 88.421875 -89.875 C 87.160156 -87.9375 85.753906 -86.046875 84.203125 -84.203125 C 82.648438 -82.359375 81.050781 -80.566406 79.40625 -78.828125 C 78.144531 -77.566406 76.859375 -76.253906 75.546875 -74.890625 C 74.242188 -73.535156 72.769531 -72.375 71.125 -71.40625 C 70.15625 -70.820312 69.160156 -70.503906 68.140625 -70.453125 C 67.117188 -70.410156 66.460938 -70.65625 66.171875 -71.1875 C 65.878906 -71.71875 66.316406 -72.566406 67.484375 -73.734375 C 67.773438 -73.929688 68.1875 -74.5625 68.71875 -75.625 C 69.25 -76.695312 69.878906 -77.910156 70.609375 -79.265625 C 71.335938 -80.617188 72.0625 -81.804688 72.78125 -82.828125 C 73.507812 -83.847656 74.117188 -84.359375 74.609375 -84.359375 C 74.515625 -84.253906 74.222656 -83.71875 73.734375 -82.75 C 73.253906 -81.78125 72.816406 -80.957031 72.421875 -80.28125 C 73.390625 -81.632812 74.625 -83.5 76.125 -85.875 C 77.632812 -88.25 78.96875 -90.742188 80.125 -93.359375 C 81.289062 -95.984375 81.847656 -98.382812 81.796875 -100.5625 C 81.753906 -102.75 80.71875 -104.328125 78.6875 -105.296875 C 77.03125 -106.066406 75.085938 -106.207031 72.859375 -105.71875 C 70.628906 -105.238281 68.691406 -104.710938 67.046875 -104.140625 C 63.359375 -102.878906 59.820312 -100.9375 56.4375 -98.3125 C 61.082031 -101.800781 66.21875 -104.03125 71.84375 -105 C 73.101562 -105.195312 74.484375 -105.34375 75.984375 -105.4375 C 77.492188 -105.539062 78.734375 -105.15625 79.703125 -104.28125 C 80.765625 -103.207031 81.175781 -102.085938 80.9375 -100.921875 C 80.695312 -99.765625 80.476562 -98.65625 80.28125 -97.59375 C 80.28125 -98.851562 80.300781 -100.015625 80.34375 -101.078125 C 80.394531 -102.140625 80.15625 -103.054688 79.625 -103.828125 C 79.09375 -104.609375 77.90625 -105.050781 76.0625 -105.15625 C 73.832031 -105.25 71.578125 -104.957031 69.296875 -104.28125 C 67.023438 -103.601562 64.914062 -102.78125 62.96875 -101.8125 C 59.582031 -100.15625 56.410156 -97.945312 53.453125 -95.1875 C 50.492188 -92.425781 48.140625 -89.347656 46.390625 -85.953125 C 44.453125 -82.171875 43.578125 -78.316406 43.765625 -74.390625 C 43.960938 -70.460938 44.765625 -66.582031 46.171875 -62.75 C 47.578125 -58.925781 49.222656 -55.144531 51.109375 -51.40625 C 53.003906 -47.675781 54.679688 -44.113281 56.140625 -40.71875 C 54.679688 -43.53125 53.148438 -46.289062 51.546875 -49 C 49.953125 -51.71875 48.476562 -54.4375 47.125 -57.15625 C 48.1875 -54.925781 49.007812 -52.742188 49.59375 -50.609375 C 50.175781 -48.472656 51.097656 -46.289062 52.359375 -44.0625 C 54.003906 -41.351562 55.625 -38.710938 57.21875 -36.140625 C 58.820312 -33.566406 60.109375 -30.734375 61.078125 -27.640625 C 63.023438 -21.140625 63.078125 -15.195312 61.234375 -9.8125 C 59.390625 -4.4375 55.945312 0.429688 50.90625 4.796875 L 53.8125 2.765625 C 53.8125 3.828125 53.15625 4.941406 51.84375 6.109375 C 50.539062 7.273438 48.914062 8.390625 46.96875 9.453125 C 45.03125 10.515625 43.1875 11.429688 41.4375 12.203125 C 39.695312 12.984375 38.441406 13.519531 37.671875 13.8125 C 33.304688 15.5625 28.476562 16.507812 23.1875 16.65625 C 17.90625 16.800781 13.082031 15.804688 8.71875 13.671875 C 5.625 12.023438 3.394531 9.890625 2.03125 7.265625 C 0.675781 4.648438 0 1.816406 0 -1.234375 C 0 -4.285156 0.484375 -7.363281 1.453125 -10.46875 C 2.421875 -13.570312 3.679688 -16.335938 5.234375 -18.765625 C 5.617188 -19.347656 6.46875 -20.484375 7.78125 -22.171875 C 9.09375 -23.867188 10.59375 -25.539062 12.28125 -27.1875 C 13.976562 -28.84375 15.601562 -30.03125 17.15625 -30.75 C 18.707031 -31.476562 19.875 -31.117188 20.65625 -29.671875 C 21.132812 -28.890625 21.054688 -27.796875 20.421875 -26.390625 C 19.796875 -24.984375 19.046875 -23.550781 18.171875 -22.09375 C 17.304688 -20.644531 16.726562 -19.535156 16.4375 -18.765625 C 15.851562 -17.503906 15.363281 -16.242188 14.96875 -14.984375 C 14.582031 -13.722656 14.25 -12.410156 13.96875 -11.046875 C 13.476562 -8.722656 13.132812 -6.25 12.9375 -3.625 C 12.75 -1.007812 13.140625 1.410156 14.109375 3.640625 C 15.273438 6.347656 17.210938 7.867188 19.921875 8.203125 C 22.640625 8.546875 25.257812 8.378906 27.78125 7.703125 C 31.269531 6.640625 34.515625 4.894531 37.515625 2.46875 C 40.523438 0.0507812 42.953125 -2.707031 44.796875 -5.8125 C 45.765625 -7.46875 46.5625 -9.191406 47.1875 -10.984375 C 47.820312 -12.773438 48.1875 -14.59375 48.28125 -16.4375 C 48.28125 -17.789062 48.132812 -19.195312 47.84375 -20.65625 C 47.75 -21.039062 47.554688 -21.523438 47.265625 -22.109375 C 46.972656 -22.691406 46.875 -23.222656 46.96875 -23.703125 C 46.96875 -23.410156 47.085938 -23.046875 47.328125 -22.609375 C 47.578125 -22.179688 47.75 -21.769531 47.84375 -21.375 C 47.75 -21.863281 47.628906 -22.347656 47.484375 -22.828125 C 47.335938 -23.316406 47.21875 -23.851562 47.125 -24.4375 C 47.125 -24.332031 47.023438 -24.472656 46.828125 -24.859375 C 46.640625 -25.253906 46.492188 -25.453125 46.390625 -25.453125 C 45.910156 -26.617188 45.523438 -27.6875 45.234375 -28.65625 L 42.609375 -35.203125 C 41.160156 -38.984375 39.609375 -42.738281 37.953125 -46.46875 C 36.304688 -50.195312 34.660156 -53.953125 33.015625 -57.734375 C 31.847656 -60.546875 30.898438 -63.429688 30.171875 -66.390625 C 29.453125 -69.347656 28.992188 -72.332031 28.796875 -75.34375 C 28.796875 -75.820312 28.742188 -76.882812 28.640625 -78.53125 C 28.546875 -80.1875 28.597656 -81.765625 28.796875 -83.265625 C 28.992188 -84.765625 29.476562 -85.515625 30.25 -85.515625 C 30.15625 -85.515625 30.035156 -85.125 29.890625 -84.34375 C 29.742188 -83.570312 29.71875 -83.1875 29.8125 -83.1875 C 30.394531 -85.90625 31.414062 -88.617188 32.875 -91.328125 L 31.84375 -89.875 C 32.132812 -91.625 32.882812 -93.320312 34.09375 -94.96875 C 35.3125 -96.613281 36.671875 -98.1875 38.171875 -99.6875 C 39.679688 -101.195312 41.015625 -102.484375 42.171875 -103.546875 C 47.410156 -108.398438 53.472656 -111.695312 60.359375 -113.4375 C 63.847656 -114.3125 67.191406 -114.503906 70.390625 -114.015625 C 73.585938 -113.535156 76.835938 -112.617188 80.140625 -111.265625 C 81.492188 -110.773438 82.773438 -110.210938 83.984375 -109.578125 C 85.203125 -108.953125 86.296875 -108.203125 87.265625 -107.328125 Z M 5.96875 10.46875 C 4.125 8.039062 3.078125 4.9375 2.828125 1.15625 C 2.585938 -2.625 3.023438 -6.523438 4.140625 -10.546875 C 5.253906 -14.566406 6.78125 -17.984375 8.71875 -20.796875 C 6.488281 -17.691406 4.695312 -14.320312 3.34375 -10.6875 C 1.988281 -7.050781 1.457031 -3.414062 1.75 0.21875 C 2.039062 3.851562 3.445312 7.269531 5.96875 10.46875 Z M 43.484375 -74.171875 L 43.484375 -72.140625 C 43.484375 -72.429688 43.503906 -72.742188 43.546875 -73.078125 C 43.597656 -73.421875 43.578125 -73.785156 43.484375 -74.171875 Z M 43.484375 -74.171875 "></path></g></g></g></g><g fill="#ffffff" fill-opacity="1"><g transform="translate(73.519566, 145.722903)"><g><path d="M 68.796875 -35.484375 C 68.890625 -34.609375 68.523438 -33.515625 67.703125 -32.203125 C 66.878906 -30.898438 66.222656 -29.863281 65.734375 -29.09375 C 64.765625 -27.34375 63.601562 -25.664062 62.25 -24.0625 C 60.894531 -22.46875 59.535156 -20.894531 58.171875 -19.34375 C 56.816406 -17.882812 55.238281 -16.207031 53.4375 -14.3125 C 51.644531 -12.425781 49.707031 -10.78125 47.625 -9.375 C 45.539062 -7.96875 43.335938 -7.171875 41.015625 -6.984375 C 39.460938 -6.878906 37.910156 -7.191406 36.359375 -7.921875 C 34.804688 -8.648438 33.59375 -9.742188 32.71875 -11.203125 C 31.75 -13.046875 31.335938 -15.007812 31.484375 -17.09375 C 31.628906 -19.175781 32.066406 -21.234375 32.796875 -23.265625 C 33.523438 -25.304688 34.179688 -27.148438 34.765625 -28.796875 C 32.921875 -26.566406 31.078125 -24.3125 29.234375 -22.03125 C 27.390625 -19.75 25.546875 -17.445312 23.703125 -15.125 C 23.410156 -14.832031 22.632812 -14.03125 21.375 -12.71875 C 20.113281 -11.414062 18.679688 -10.035156 17.078125 -8.578125 C 15.484375 -7.128906 14.03125 -5.96875 12.71875 -5.09375 C 11.414062 -4.21875 10.570312 -4.023438 10.1875 -4.515625 C 10.1875 -4.609375 10.398438 -4.75 10.828125 -4.9375 C 11.265625 -5.132812 11.4375 -5.28125 11.34375 -5.375 C 10.664062 -4.988281 9.914062 -4.625 9.09375 -4.28125 C 8.269531 -3.945312 7.46875 -3.78125 6.6875 -3.78125 C 6.78125 -3.6875 7.023438 -3.640625 7.421875 -3.640625 C 7.515625 -3.347656 7.222656 -3.25 6.546875 -3.34375 C 5.867188 -3.4375 5.164062 -3.628906 4.4375 -3.921875 C 3.707031 -4.210938 3.242188 -4.410156 3.046875 -4.515625 C 2.273438 -5.285156 1.671875 -6.203125 1.234375 -7.265625 C 0.796875 -8.335938 0.484375 -9.359375 0.296875 -10.328125 C -0.0976562 -12.648438 -0.148438 -14.972656 0.140625 -17.296875 C 0.429688 -19.628906 0.867188 -21.910156 1.453125 -24.140625 C 2.035156 -26.472656 2.664062 -28.773438 3.34375 -31.046875 C 4.019531 -33.328125 4.84375 -35.582031 5.8125 -37.8125 C 6.300781 -38.976562 6.929688 -39.945312 7.703125 -40.71875 C 8.484375 -41.5 9.113281 -42.375 9.59375 -43.34375 C 10.375 -45.1875 11.320312 -47.148438 12.4375 -49.234375 C 13.550781 -51.316406 14.882812 -52.988281 16.4375 -54.25 C 17.789062 -55.414062 19.460938 -55.945312 21.453125 -55.84375 C 23.441406 -55.75 25.066406 -55.171875 26.328125 -54.109375 C 27.679688 -53.128906 28.164062 -52.300781 27.78125 -51.625 C 27.394531 -50.945312 26.910156 -50.078125 26.328125 -49.015625 C 26.617188 -49.492188 26.910156 -49.785156 27.203125 -49.890625 C 27.296875 -49.890625 27.050781 -49.304688 26.46875 -48.140625 C 25.882812 -46.972656 25.273438 -45.804688 24.640625 -44.640625 C 24.015625 -43.484375 23.554688 -42.90625 23.265625 -42.90625 C 23.265625 -42.90625 23.363281 -43.195312 23.5625 -43.78125 C 23.757812 -44.363281 23.953125 -44.847656 24.140625 -45.234375 C 23.171875 -43.585938 22.25 -41.890625 21.375 -40.140625 C 20.507812 -38.390625 19.6875 -36.644531 18.90625 -34.90625 C 19.195312 -35.289062 19.488281 -35.484375 19.78125 -35.484375 C 19.6875 -35.484375 19.347656 -34.804688 18.765625 -33.453125 C 18.179688 -32.097656 17.523438 -30.5 16.796875 -28.65625 C 16.066406 -26.8125 15.410156 -25.132812 14.828125 -23.625 C 14.253906 -22.125 13.914062 -21.226562 13.8125 -20.9375 C 13.625 -20.257812 13.332031 -19.242188 12.9375 -17.890625 C 12.550781 -16.535156 12.40625 -15.394531 12.5 -14.46875 C 12.601562 -13.550781 13.285156 -13.285156 14.546875 -13.671875 C 16.679688 -14.253906 18.71875 -15.679688 20.65625 -17.953125 C 22.59375 -20.234375 24.191406 -22.148438 25.453125 -23.703125 C 27.191406 -25.640625 28.8125 -27.675781 30.3125 -29.8125 C 31.820312 -31.945312 33.351562 -34.082031 34.90625 -36.21875 C 35.96875 -37.863281 37.128906 -39.65625 38.390625 -41.59375 C 39.648438 -43.53125 41.175781 -45.082031 42.96875 -46.25 C 44.769531 -47.414062 46.878906 -47.65625 49.296875 -46.96875 C 51.523438 -46.394531 52.640625 -45.332031 52.640625 -43.78125 C 52.640625 -42.226562 52.179688 -40.550781 51.265625 -38.75 C 50.347656 -36.957031 49.546875 -35.382812 48.859375 -34.03125 C 49.347656 -34.519531 49.59375 -34.710938 49.59375 -34.609375 C 49.882812 -34.316406 49.832031 -33.613281 49.4375 -32.5 C 49.050781 -31.382812 48.613281 -30.242188 48.125 -29.078125 C 47.644531 -27.921875 47.3125 -27.097656 47.125 -26.609375 C 46.738281 -25.253906 46.300781 -23.800781 45.8125 -22.25 C 45.320312 -20.695312 45.03125 -19.144531 44.9375 -17.59375 C 44.84375 -15.851562 45.0625 -15.078125 45.59375 -15.265625 C 46.125 -15.460938 46.972656 -16 48.140625 -16.875 C 50.660156 -18.8125 52.960938 -20.96875 55.046875 -23.34375 C 57.128906 -25.71875 59.238281 -28.019531 61.375 -30.25 C 61.46875 -30.34375 61.878906 -30.773438 62.609375 -31.546875 C 63.335938 -32.328125 64.160156 -33.15625 65.078125 -34.03125 C 66.003906 -34.90625 66.828125 -35.535156 67.546875 -35.921875 C 68.273438 -36.304688 68.691406 -36.160156 68.796875 -35.484375 Z M 46.6875 -32.578125 C 47.164062 -34.128906 47.742188 -35.65625 48.421875 -37.15625 C 49.109375 -38.65625 49.742188 -40.179688 50.328125 -41.734375 C 49.835938 -40.578125 49.15625 -39.296875 48.28125 -37.890625 C 47.40625 -36.484375 46.648438 -35.097656 46.015625 -33.734375 C 45.390625 -32.378906 45.273438 -31.070312 45.671875 -29.8125 C 45.671875 -29.625 45.617188 -29.476562 45.515625 -29.375 C 45.710938 -29.570312 45.8125 -29.71875 45.8125 -29.8125 C 46.007812 -30.195312 46.179688 -30.65625 46.328125 -31.1875 C 46.472656 -31.726562 46.59375 -32.191406 46.6875 -32.578125 Z M 12.078125 -13.8125 C 11.972656 -14.488281 12.332031 -16.28125 13.15625 -19.1875 C 13.976562 -22.101562 14.878906 -24.96875 15.859375 -27.78125 C 15.078125 -25.84375 14.148438 -23.5625 13.078125 -20.9375 C 12.015625 -18.320312 11.679688 -15.945312 12.078125 -13.8125 Z M 34.765625 -28.0625 C 34.953125 -28.644531 35.144531 -29.082031 35.34375 -29.375 C 34.957031 -29.082031 34.765625 -28.644531 34.765625 -28.0625 Z M 34.765625 -28.0625 "></path></g></g></g><g fill="#ffffff" fill-opacity="1"><g transform="translate(131.696337, 145.722903)"><g><path d="M 73.875 -35.625 C 74.363281 -34.945312 74.4375 -34.390625 74.09375 -33.953125 C 73.757812 -33.523438 73.398438 -33.066406 73.015625 -32.578125 L 72.140625 -32.140625 C 71.753906 -32.335938 71.507812 -32.289062 71.40625 -32 C 71.789062 -31.613281 71.84375 -31.222656 71.5625 -30.828125 C 70.6875 -29.765625 69.566406 -28.96875 68.203125 -28.4375 C 66.847656 -27.90625 65.6875 -27.148438 64.71875 -26.171875 C 64.238281 -25.691406 63.875 -25.253906 63.625 -24.859375 C 63.382812 -24.472656 62.972656 -23.992188 62.390625 -23.421875 C 62.203125 -23.222656 61.9375 -23.097656 61.59375 -23.046875 C 61.25 -23.003906 60.984375 -22.882812 60.796875 -22.6875 C 59.335938 -21.8125 58.125 -20.796875 57.15625 -19.640625 C 55.894531 -18.179688 54.582031 -16.675781 53.21875 -15.125 C 51.863281 -13.570312 50.609375 -11.925781 49.453125 -10.1875 C 48.378906 -8.632812 46.894531 -6.738281 45 -4.5 C 43.113281 -2.269531 41.03125 -0.257812 38.75 1.53125 C 36.476562 3.320312 34.15625 4.363281 31.78125 4.65625 C 29.40625 4.945312 27.25 3.878906 25.3125 1.453125 C 23.851562 -0.390625 23.414062 -1.816406 24 -2.828125 C 24.582031 -3.847656 25.550781 -4.742188 26.90625 -5.515625 C 28.257812 -6.296875 29.421875 -7.171875 30.390625 -8.140625 C 31.554688 -9.304688 32.648438 -10.539062 33.671875 -11.84375 C 34.691406 -13.15625 35.832031 -14.394531 37.09375 -15.5625 C 37.375 -15.757812 38.023438 -16.507812 39.046875 -17.8125 C 40.066406 -19.125 40.675781 -19.972656 40.875 -20.359375 L 41.296875 -21.09375 C 40.910156 -20.601562 40.8125 -20.695312 41 -21.375 C 41.195312 -22.050781 41.296875 -22.441406 41.296875 -22.546875 C 41.492188 -23.128906 41.785156 -23.734375 42.171875 -24.359375 C 42.566406 -24.992188 42.90625 -25.597656 43.1875 -26.171875 C 43.675781 -27.148438 44.160156 -28.144531 44.640625 -29.15625 C 45.128906 -30.175781 45.421875 -31.21875 45.515625 -32.28125 C 45.617188 -33.0625 45.644531 -34.03125 45.59375 -35.1875 C 45.539062 -36.351562 45.03125 -37.035156 44.0625 -37.234375 C 43.875 -37.234375 43.296875 -37.085938 42.328125 -36.796875 C 41.359375 -36.503906 40.4375 -36.1875 39.5625 -35.84375 C 38.6875 -35.507812 38.25 -35.34375 38.25 -35.34375 C 38.15625 -35.4375 38.253906 -35.578125 38.546875 -35.765625 C 38.835938 -35.960938 38.929688 -36.113281 38.828125 -36.21875 C 37.859375 -35.539062 36.988281 -34.8125 36.21875 -34.03125 C 36.3125 -34.125 36.457031 -34.171875 36.65625 -34.171875 C 36.363281 -34.078125 35.660156 -33.347656 34.546875 -31.984375 C 33.429688 -30.628906 32.191406 -29.054688 30.828125 -27.265625 C 29.472656 -25.472656 28.257812 -23.875 27.1875 -22.46875 C 26.125 -21.0625 25.5 -20.210938 25.3125 -19.921875 C 24.4375 -18.472656 23.609375 -16.972656 22.828125 -15.421875 C 22.054688 -13.867188 21.140625 -12.460938 20.078125 -11.203125 C 19.585938 -10.910156 19.242188 -10.8125 19.046875 -10.90625 C 18.460938 -10.519531 18.269531 -9.9375 18.46875 -9.15625 C 18.175781 -8.582031 17.882812 -8.003906 17.59375 -7.421875 C 17.300781 -6.835938 17.0625 -6.253906 16.875 -5.671875 C 16.195312 -4.410156 15.660156 -2.90625 15.265625 -1.15625 C 14.878906 0.582031 14.300781 2.035156 13.53125 3.203125 C 12.65625 4.648438 11.488281 5.273438 10.03125 5.078125 C 8.582031 4.890625 7.226562 4.359375 5.96875 3.484375 C 5.28125 3.003906 4.691406 2.472656 4.203125 1.890625 C 3.722656 1.304688 3.289062 0.675781 2.90625 0 C 2.90625 0 2.757812 -0.363281 2.46875 -1.09375 C 2.175781 -1.820312 2.082031 -2.1875 2.1875 -2.1875 C 2.082031 -2.476562 1.957031 -2.742188 1.8125 -2.984375 C 1.664062 -3.222656 1.546875 -3.535156 1.453125 -3.921875 C 1.546875 -3.535156 1.59375 -3.195312 1.59375 -2.90625 C 1.59375 -2.613281 1.59375 -2.519531 1.59375 -2.625 C 0.726562 -3.007812 0.222656 -4.144531 0.078125 -6.03125 C -0.0664062 -7.925781 -0.046875 -9.890625 0.140625 -11.921875 C 0.335938 -13.960938 0.4375 -15.273438 0.4375 -15.859375 C 0.726562 -19.734375 1.210938 -23.5625 1.890625 -27.34375 C 2.566406 -31.125 3.390625 -34.90625 4.359375 -38.6875 C 5.816406 -45.082031 7.609375 -51.429688 9.734375 -57.734375 C 11.867188 -64.035156 14.148438 -70.242188 16.578125 -76.359375 C 18.804688 -81.691406 21.0625 -87 23.34375 -92.28125 C 25.625 -97.5625 28.171875 -102.722656 30.984375 -107.765625 C 32.535156 -110.671875 34.179688 -113.53125 35.921875 -116.34375 C 37.671875 -119.15625 39.5625 -121.820312 41.59375 -124.34375 C 43.34375 -126.476562 45.453125 -128.632812 47.921875 -130.8125 C 50.390625 -133 53.128906 -134.046875 56.140625 -133.953125 C 59.046875 -133.847656 61.296875 -132.847656 62.890625 -130.953125 C 64.492188 -129.066406 65.585938 -126.765625 66.171875 -124.046875 C 66.753906 -121.335938 67.019531 -118.578125 66.96875 -115.765625 C 66.925781 -112.953125 66.660156 -110.53125 66.171875 -108.5 C 66.171875 -108.5 66.171875 -107.960938 66.171875 -106.890625 C 66.171875 -105.828125 65.976562 -105.148438 65.59375 -104.859375 C 65.6875 -104.953125 65.78125 -105.457031 65.875 -106.375 C 65.976562 -107.300781 66.03125 -107.765625 66.03125 -107.765625 L 65.15625 -104.28125 C 65.351562 -104.46875 65.5 -104.46875 65.59375 -104.28125 C 65.789062 -103.3125 65.546875 -102.050781 64.859375 -100.5 C 64.179688 -98.945312 63.648438 -97.734375 63.265625 -96.859375 C 62.679688 -95.597656 62.097656 -94.382812 61.515625 -93.21875 C 60.929688 -92.0625 60.253906 -90.898438 59.484375 -89.734375 C 58.421875 -87.703125 57.257812 -85.691406 56 -83.703125 C 54.738281 -81.710938 53.523438 -79.695312 52.359375 -77.65625 C 51.097656 -75.425781 49.640625 -73.316406 47.984375 -71.328125 C 46.335938 -69.347656 44.644531 -67.4375 42.90625 -65.59375 C 42.707031 -65.394531 42.144531 -64.8125 41.21875 -63.84375 C 40.300781 -62.875 39.257812 -61.804688 38.09375 -60.640625 C 36.9375 -59.484375 35.875 -58.515625 34.90625 -57.734375 C 33.9375 -56.960938 33.304688 -56.671875 33.015625 -56.859375 C 33.015625 -56.859375 33.253906 -57.101562 33.734375 -57.59375 C 34.222656 -58.082031 34.46875 -58.375 34.46875 -58.46875 C 33.5 -57.6875 32.550781 -56.859375 31.625 -55.984375 C 30.707031 -55.117188 29.71875 -54.296875 28.65625 -53.515625 C 28.945312 -53.710938 29.1875 -53.859375 29.375 -53.953125 C 29.570312 -54.054688 29.671875 -54.109375 29.671875 -54.109375 C 28.890625 -52.847656 27.625 -51.945312 25.875 -51.40625 C 24.132812 -50.875 22.878906 -49.929688 22.109375 -48.578125 C 21.140625 -47.023438 20.484375 -45.0625 20.140625 -42.6875 C 19.804688 -40.3125 19.441406 -38.203125 19.046875 -36.359375 C 17.304688 -28.703125 15.851562 -20.894531 14.6875 -12.9375 L 14.984375 -13.671875 L 14.390625 -11.34375 C 15.554688 -13.664062 16.890625 -15.914062 18.390625 -18.09375 C 19.898438 -20.28125 21.429688 -22.394531 22.984375 -24.4375 C 22.304688 -23.65625 21.53125 -22.800781 20.65625 -21.875 C 19.78125 -20.957031 18.953125 -19.96875 18.171875 -18.90625 C 19.628906 -21.039062 21.15625 -23.125 22.75 -25.15625 C 24.351562 -27.195312 26.03125 -29.140625 27.78125 -30.984375 C 29.8125 -33.210938 32.039062 -35.535156 34.46875 -37.953125 C 36.894531 -40.378906 39.515625 -42.222656 42.328125 -43.484375 C 43.390625 -43.972656 44.425781 -44.3125 45.4375 -44.5 C 46.457031 -44.695312 47.503906 -44.601562 48.578125 -44.21875 C 51.390625 -43.34375 53.179688 -41.644531 53.953125 -39.125 C 54.734375 -36.601562 55.171875 -34.175781 55.265625 -31.84375 C 55.265625 -32.425781 55.363281 -32.863281 55.5625 -33.15625 C 55.75 -33.257812 55.867188 -32.65625 55.921875 -31.34375 C 55.972656 -30.03125 56 -28.695312 56 -27.34375 C 56 -25.988281 55.945312 -25.164062 55.84375 -24.875 C 57.882812 -26.226562 59.894531 -27.535156 61.875 -28.796875 C 63.863281 -30.054688 65.78125 -31.460938 67.625 -33.015625 C 68.207031 -33.492188 68.863281 -34.097656 69.59375 -34.828125 C 70.320312 -35.554688 71.046875 -36.113281 71.765625 -36.5 C 72.492188 -36.894531 73.148438 -36.65625 73.734375 -35.78125 L 73.875 -35.78125 Z M 57.59375 -127.40625 C 56.914062 -127.40625 56.382812 -127.210938 56 -126.828125 C 56.1875 -127.015625 56.472656 -127.15625 56.859375 -127.25 C 57.253906 -127.351562 57.5 -127.304688 57.59375 -127.109375 C 57.5 -127.304688 56.941406 -126.867188 55.921875 -125.796875 C 54.898438 -124.734375 53.804688 -123.546875 52.640625 -122.234375 C 51.484375 -120.929688 50.660156 -119.988281 50.171875 -119.40625 L 52.0625 -122.890625 C 50.21875 -120.472656 48.59375 -117.953125 47.1875 -115.328125 C 45.78125 -112.710938 44.445312 -110.046875 43.1875 -107.328125 C 43.476562 -107.816406 43.769531 -108.109375 44.0625 -108.203125 C 43.875 -108.015625 43.414062 -107.09375 42.6875 -105.4375 C 41.957031 -103.789062 41.109375 -101.800781 40.140625 -99.46875 C 39.171875 -97.144531 38.222656 -94.796875 37.296875 -92.421875 C 36.378906 -90.046875 35.582031 -87.984375 34.90625 -86.234375 C 34.226562 -84.492188 33.789062 -83.429688 33.59375 -83.046875 C 31.945312 -78.773438 30.367188 -74.457031 28.859375 -70.09375 C 27.359375 -65.738281 25.929688 -61.378906 24.578125 -57.015625 C 27.878906 -59.628906 31.054688 -62.34375 34.109375 -65.15625 C 37.160156 -67.96875 39.992188 -71.019531 42.609375 -74.3125 C 44.648438 -76.832031 46.710938 -79.472656 48.796875 -82.234375 C 50.878906 -85.003906 52.84375 -87.601562 54.6875 -90.03125 C 55.65625 -91.289062 56.453125 -92.910156 57.078125 -94.890625 C 57.710938 -96.878906 58.269531 -98.648438 58.75 -100.203125 C 59.53125 -102.140625 60.160156 -104.148438 60.640625 -106.234375 C 61.128906 -108.328125 61.421875 -110.4375 61.515625 -112.5625 C 61.515625 -113.25 61.539062 -114.390625 61.59375 -115.984375 C 61.644531 -117.585938 61.570312 -119.257812 61.375 -121 C 61.175781 -122.75 60.785156 -124.253906 60.203125 -125.515625 C 59.628906 -126.773438 58.757812 -127.40625 57.59375 -127.40625 Z M 28.9375 -100.78125 C 26.414062 -96.03125 24.085938 -91.160156 21.953125 -86.171875 C 19.828125 -81.179688 17.84375 -76.164062 16 -71.125 C 17.9375 -76.164062 20.019531 -81.15625 22.25 -86.09375 C 24.476562 -91.039062 26.953125 -95.890625 29.671875 -100.640625 C 31.515625 -103.742188 33.332031 -106.820312 35.125 -109.875 C 36.914062 -112.925781 38.878906 -115.910156 41.015625 -118.828125 C 42.566406 -120.953125 44.257812 -123.007812 46.09375 -125 C 47.9375 -126.988281 50.117188 -128.421875 52.640625 -129.296875 C 50.023438 -128.421875 47.675781 -126.960938 45.59375 -124.921875 C 43.507812 -122.890625 41.738281 -120.90625 40.28125 -118.96875 C 38.050781 -116.0625 36.015625 -113.101562 34.171875 -110.09375 C 32.335938 -107.09375 30.59375 -103.988281 28.9375 -100.78125 Z M 38.546875 -14.25 C 40.285156 -16.96875 42.023438 -19.878906 43.765625 -22.984375 C 45.515625 -26.085938 46.632812 -29.285156 47.125 -32.578125 C 46.632812 -30.253906 45.734375 -27.832031 44.421875 -25.3125 C 43.117188 -22.789062 42.175781 -21.140625 41.59375 -20.359375 C 40.332031 -18.617188 39.09375 -16.898438 37.875 -15.203125 C 36.664062 -13.503906 35.382812 -11.832031 34.03125 -10.1875 C 33.0625 -9.113281 32.1875 -8.066406 31.40625 -7.046875 C 30.632812 -6.035156 29.765625 -5.238281 28.796875 -4.65625 C 30.640625 -5.71875 32.410156 -7.171875 34.109375 -9.015625 C 35.804688 -10.859375 37.285156 -12.601562 38.546875 -14.25 Z M 23.859375 -56.4375 C 24.335938 -56.820312 24.695312 -57.617188 24.9375 -58.828125 C 25.1875 -60.035156 25.359375 -60.929688 25.453125 -61.515625 L 26.171875 -64.140625 L 24.28125 -58.171875 L 24.28125 -58.03125 C 24.1875 -57.9375 24.140625 -57.789062 24.140625 -57.59375 C 24.140625 -57.5 24.113281 -57.398438 24.0625 -57.296875 C 24.019531 -57.203125 24 -57.109375 24 -57.015625 L 23.859375 -56.71875 Z M 30.390625 -76.0625 L 37.515625 -94.25 C 36.253906 -91.238281 35.039062 -88.226562 33.875 -85.21875 C 32.71875 -82.21875 31.554688 -79.164062 30.390625 -76.0625 Z M 15.125 -13.8125 C 15.507812 -14.6875 15.96875 -15.5625 16.5 -16.4375 C 17.039062 -17.3125 17.597656 -18.132812 18.171875 -18.90625 Z M 23.859375 -56.4375 C 23.859375 -56.53125 23.878906 -56.597656 23.921875 -56.640625 C 23.972656 -56.691406 24 -56.765625 24 -56.859375 L 23.859375 -56.71875 Z M 27.203125 -29.671875 L 27.046875 -29.53125 C 27.046875 -29.53125 27.070312 -29.53125 27.125 -29.53125 C 27.175781 -29.53125 27.203125 -29.578125 27.203125 -29.671875 Z M 27.203125 -29.671875 "></path></g></g></g><g fill="#ffffff" fill-opacity="1"><g transform="translate(195.254547, 145.722903)"><g><path d="M 66.90625 -36.21875 C 67.96875 -34.851562 67.914062 -33.734375 66.75 -32.859375 C 65.59375 -31.992188 63.96875 -31.316406 61.875 -30.828125 C 59.789062 -30.347656 57.800781 -30.007812 55.90625 -29.8125 C 54.019531 -29.625 52.882812 -29.476562 52.5 -29.375 C 52.40625 -29.375 52.019531 -29.273438 51.34375 -29.078125 C 50.664062 -28.890625 50.375 -28.84375 50.46875 -28.9375 C 49.789062 -28.644531 49.378906 -28.453125 49.234375 -28.359375 C 49.085938 -28.265625 48.769531 -27.878906 48.28125 -27.203125 C 47.695312 -26.328125 47.140625 -25.425781 46.609375 -24.5 C 46.078125 -23.582031 45.566406 -22.6875 45.078125 -21.8125 C 44.890625 -21.625 44.3125 -20.847656 43.34375 -19.484375 C 42.375 -18.128906 41.378906 -16.84375 40.359375 -15.625 C 39.335938 -14.414062 38.632812 -13.863281 38.25 -13.96875 C 38.25 -13.96875 38.441406 -14.207031 38.828125 -14.6875 C 39.210938 -15.175781 39.359375 -15.46875 39.265625 -15.5625 L 35.046875 -10.609375 C 35.535156 -11.097656 35.78125 -11.242188 35.78125 -11.046875 C 35.394531 -9.785156 34.253906 -8.5 32.359375 -7.1875 C 30.472656 -5.882812 28.992188 -4.847656 27.921875 -4.078125 C 26.753906 -3.203125 25.46875 -2.398438 24.0625 -1.671875 C 22.664062 -0.941406 21.191406 -0.484375 19.640625 -0.296875 C 16.628906 -0.00390625 13.671875 -0.535156 10.765625 -1.890625 C 7.953125 -3.347656 5.578125 -5.457031 3.640625 -8.21875 C 1.703125 -10.976562 0.515625 -14.003906 0.078125 -17.296875 C -0.359375 -20.597656 0.195312 -23.703125 1.75 -26.609375 C 3.007812 -28.941406 4.171875 -31.367188 5.234375 -33.890625 C 6.296875 -36.410156 7.703125 -38.832031 9.453125 -41.15625 C 10.515625 -42.414062 11.601562 -43.628906 12.71875 -44.796875 C 13.832031 -45.960938 15.070312 -46.976562 16.4375 -47.84375 C 17.59375 -48.71875 18.898438 -49.445312 20.359375 -50.03125 C 20.847656 -50.320312 21.523438 -50.539062 22.390625 -50.6875 C 23.265625 -50.832031 23.894531 -51.050781 24.28125 -51.34375 C 24.769531 -51.632812 25.207031 -52.484375 25.59375 -53.890625 C 25.976562 -55.296875 26.316406 -56.285156 26.609375 -56.859375 C 27.191406 -57.929688 27.875 -59.050781 28.65625 -60.21875 C 29.71875 -61.664062 30.851562 -63.066406 32.0625 -64.421875 C 33.28125 -65.785156 34.664062 -66.90625 36.21875 -67.78125 C 38.738281 -69.132812 41.160156 -69.328125 43.484375 -68.359375 C 45.804688 -67.390625 47.890625 -65.984375 49.734375 -64.140625 C 49.734375 -64.140625 50.144531 -63.847656 50.96875 -63.265625 C 51.800781 -62.679688 52.164062 -62.148438 52.0625 -61.671875 L 51.484375 -62.25 L 52.0625 -61.078125 L 52.21875 -60.9375 C 52.019531 -61.519531 52.1875 -61.492188 52.71875 -60.859375 C 53.25 -60.234375 53.515625 -59.921875 53.515625 -59.921875 C 54.191406 -58.953125 54.675781 -57.691406 54.96875 -56.140625 C 55.164062 -55.171875 55.265625 -54.148438 55.265625 -53.078125 C 55.265625 -52.015625 55.164062 -50.953125 54.96875 -49.890625 C 54.675781 -47.171875 54.164062 -44.453125 53.4375 -41.734375 C 52.71875 -39.023438 51.96875 -36.359375 51.1875 -33.734375 C 53.414062 -34.128906 55.597656 -34.566406 57.734375 -35.046875 C 59.867188 -35.535156 62.003906 -35.972656 64.140625 -36.359375 C 64.617188 -36.554688 65.097656 -36.726562 65.578125 -36.875 C 66.066406 -37.019531 66.507812 -36.847656 66.90625 -36.359375 C 67 -36.265625 67.019531 -36.21875 66.96875 -36.21875 C 66.925781 -36.21875 66.90625 -36.21875 66.90625 -36.21875 Z M 16.578125 -6.828125 C 19.972656 -7.515625 23.097656 -9.066406 25.953125 -11.484375 C 28.816406 -13.910156 31.316406 -16.722656 33.453125 -19.921875 C 35.585938 -23.117188 37.378906 -26.125 38.828125 -28.9375 C 36.691406 -29.226562 34.507812 -29.757812 32.28125 -30.53125 C 30.050781 -31.3125 28.085938 -32.453125 26.390625 -33.953125 C 24.703125 -35.460938 23.566406 -37.425781 22.984375 -39.84375 C 21.816406 -38.582031 20.070312 -35.578125 17.75 -30.828125 L 18.609375 -32.140625 C 18.515625 -31.847656 18.03125 -30.753906 17.15625 -28.859375 C 16.289062 -26.972656 15.320312 -24.71875 14.25 -22.09375 C 13.1875 -19.476562 12.382812 -16.957031 11.84375 -14.53125 C 11.3125 -12.113281 11.335938 -10.128906 11.921875 -8.578125 C 12.503906 -7.023438 14.007812 -6.441406 16.4375 -6.828125 Z M 45.234375 -47.125 C 45.523438 -48.382812 45.835938 -49.910156 46.171875 -51.703125 C 46.515625 -53.492188 46.734375 -55.285156 46.828125 -57.078125 C 46.921875 -58.878906 46.582031 -60.410156 45.8125 -61.671875 C 44.84375 -63.222656 43.675781 -63.707031 42.3125 -63.125 C 40.957031 -62.539062 39.648438 -61.566406 38.390625 -60.203125 C 37.128906 -58.847656 36.113281 -57.6875 35.34375 -56.71875 C 35.25 -56.71875 35.203125 -56.691406 35.203125 -56.640625 C 35.203125 -56.597656 35.203125 -56.578125 35.203125 -56.578125 L 35.046875 -56.28125 L 35.046875 -56.4375 C 34.953125 -56.144531 34.90625 -56 34.90625 -56 C 34.519531 -55.507812 34.128906 -55 33.734375 -54.46875 C 33.347656 -53.9375 32.914062 -53.28125 32.4375 -52.5 C 32.53125 -52.59375 32.84375 -53.050781 33.375 -53.875 C 33.90625 -54.707031 34.222656 -55.023438 34.328125 -54.828125 C 34.515625 -54.535156 34.390625 -53.925781 33.953125 -53 C 33.523438 -52.082031 33.066406 -51.160156 32.578125 -50.234375 C 32.085938 -49.316406 31.75 -48.71875 31.5625 -48.4375 C 31.175781 -47.269531 30.8125 -46.101562 30.46875 -44.9375 C 30.125 -43.769531 29.859375 -42.554688 29.671875 -41.296875 C 29.578125 -40.035156 29.550781 -38.773438 29.59375 -37.515625 C 29.644531 -36.253906 30.15625 -35.191406 31.125 -34.328125 C 31.707031 -33.835938 32.429688 -33.492188 33.296875 -33.296875 C 34.171875 -33.109375 35 -32.96875 35.78125 -32.875 C 36.257812 -32.769531 36.882812 -32.691406 37.65625 -32.640625 C 38.4375 -32.597656 39.019531 -32.625 39.40625 -32.71875 C 40.1875 -32.914062 40.578125 -33.015625 40.578125 -33.015625 C 40.578125 -33.015625 40.769531 -33.351562 41.15625 -34.03125 C 42.226562 -35.875 43.050781 -38.003906 43.625 -40.421875 C 44.207031 -42.847656 44.742188 -45.082031 45.234375 -47.125 Z M 35.203125 -56.578125 C 35.203125 -56.578125 35.222656 -56.578125 35.265625 -56.578125 C 35.316406 -56.578125 35.34375 -56.625 35.34375 -56.71875 Z M 35.203125 -56.578125 "></path></g></g></g><g fill="#ffffff" fill-opacity="1"><g transform="translate(252.122368, 145.722903)"><g><path d="M 88.421875 -34.90625 C 88.910156 -33.0625 88.453125 -31.046875 87.046875 -28.859375 C 85.640625 -26.679688 84.453125 -24.914062 83.484375 -23.5625 C 81.640625 -20.945312 79.796875 -18.328125 77.953125 -15.703125 C 76.109375 -13.085938 74.171875 -10.519531 72.140625 -8 C 71.265625 -6.832031 70.125 -5.425781 68.71875 -3.78125 C 67.3125 -2.132812 65.804688 -0.679688 64.203125 0.578125 C 62.609375 1.835938 60.9375 2.519531 59.1875 2.625 C 58.894531 2.625 58.164062 2.453125 57 2.109375 C 55.84375 1.765625 54.753906 1.347656 53.734375 0.859375 C 52.722656 0.378906 52.265625 -0.0507812 52.359375 -0.4375 L 52.5 -0.296875 C 52.40625 -0.390625 52.332031 -0.507812 52.28125 -0.65625 C 52.238281 -0.800781 52.164062 -0.921875 52.0625 -1.015625 C 52.0625 -0.921875 51.722656 -1.210938 51.046875 -1.890625 C 50.367188 -2.566406 49.929688 -3.097656 49.734375 -3.484375 C 49.347656 -4.265625 49.035156 -5.113281 48.796875 -6.03125 C 48.554688 -6.957031 48.335938 -7.851562 48.140625 -8.71875 C 47.941406 -10.175781 47.816406 -11.609375 47.765625 -13.015625 C 47.722656 -14.421875 47.703125 -15.800781 47.703125 -17.15625 C 47.703125 -20.164062 48.1875 -23.078125 49.15625 -25.890625 C 49.25 -26.078125 49.515625 -26.898438 49.953125 -28.359375 C 50.390625 -29.816406 50.898438 -31.222656 51.484375 -32.578125 C 52.066406 -33.929688 52.503906 -34.5625 52.796875 -34.46875 C 52.890625 -34.46875 52.863281 -34.273438 52.71875 -33.890625 C 52.570312 -33.503906 52.546875 -33.257812 52.640625 -33.15625 C 52.835938 -33.9375 53.082031 -34.6875 53.375 -35.40625 C 53.664062 -36.132812 53.957031 -36.890625 54.25 -37.671875 C 54.050781 -37.285156 53.859375 -36.992188 53.671875 -36.796875 C 53.671875 -36.796875 53.863281 -37.328125 54.25 -38.390625 C 54.632812 -39.460938 55.117188 -40.703125 55.703125 -42.109375 C 56.285156 -43.515625 56.816406 -44.820312 57.296875 -46.03125 C 57.785156 -47.238281 58.128906 -48.039062 58.328125 -48.4375 C 55.898438 -46.195312 53.882812 -43.644531 52.28125 -40.78125 C 50.6875 -37.925781 48.675781 -35.335938 46.25 -33.015625 C 44.695312 -31.460938 43.3125 -29.425781 42.09375 -26.90625 C 40.882812 -24.382812 39.648438 -22.109375 38.390625 -20.078125 C 37.710938 -18.910156 37.007812 -17.71875 36.28125 -16.5 C 35.5625 -15.289062 34.691406 -14.515625 33.671875 -14.171875 C 32.648438 -13.835938 31.363281 -14.398438 29.8125 -15.859375 C 28.550781 -16.921875 27.773438 -18.421875 27.484375 -20.359375 C 27.390625 -21.328125 27.488281 -22.269531 27.78125 -23.1875 C 28.070312 -24.113281 28.3125 -25.015625 28.5 -25.890625 C 28.695312 -26.660156 28.742188 -27.285156 28.640625 -27.765625 C 28.546875 -28.253906 28.550781 -28.9375 28.65625 -29.8125 C 28.945312 -32.425781 29.742188 -35.019531 31.046875 -37.59375 C 32.359375 -40.164062 33.5 -42.660156 34.46875 -45.078125 C 34.5625 -45.472656 34.847656 -46.226562 35.328125 -47.34375 C 35.816406 -48.457031 36.328125 -49.644531 36.859375 -50.90625 C 37.398438 -52.164062 37.742188 -53.28125 37.890625 -54.25 C 38.035156 -55.21875 37.816406 -55.703125 37.234375 -55.703125 C 37.140625 -55.796875 36.675781 -55.304688 35.84375 -54.234375 C 35.019531 -53.171875 34.515625 -52.546875 34.328125 -52.359375 C 33.453125 -51.390625 32.601562 -50.347656 31.78125 -49.234375 C 30.957031 -48.117188 30.15625 -47.023438 29.375 -45.953125 C 26.957031 -42.273438 24.875 -38.566406 23.125 -34.828125 C 21.375 -31.097656 19.484375 -27.296875 17.453125 -23.421875 C 16.671875 -21.867188 15.941406 -20.335938 15.265625 -18.828125 C 14.585938 -17.328125 13.863281 -15.847656 13.09375 -14.390625 C 12.800781 -13.710938 12.4375 -13.035156 12 -12.359375 C 11.5625 -11.679688 11.242188 -10.957031 11.046875 -10.1875 C 11.046875 -9.988281 11.019531 -9.671875 10.96875 -9.234375 C 10.925781 -8.796875 10.859375 -8.484375 10.765625 -8.296875 C 10.273438 -7.421875 9.445312 -7.148438 8.28125 -7.484375 C 7.125 -7.828125 5.9375 -8.382812 4.71875 -9.15625 C 3.507812 -9.9375 2.664062 -10.617188 2.1875 -11.203125 C 0.632812 -13.046875 -0.0664062 -14.835938 0.078125 -16.578125 C 0.222656 -18.328125 0.242188 -20.21875 0.140625 -22.25 C 0.046875 -24.96875 0.382812 -27.632812 1.15625 -30.25 C 1.9375 -32.863281 2.765625 -35.429688 3.640625 -37.953125 C 4.023438 -39.210938 4.457031 -40.445312 4.9375 -41.65625 C 5.425781 -42.875 5.960938 -44.113281 6.546875 -45.375 C 6.929688 -46.050781 7.363281 -46.703125 7.84375 -47.328125 C 8.332031 -47.960938 8.722656 -48.617188 9.015625 -49.296875 C 9.210938 -49.691406 9.285156 -50.054688 9.234375 -50.390625 C 9.179688 -50.734375 9.5 -51.050781 10.1875 -51.34375 C 10.664062 -51.53125 11.242188 -51.476562 11.921875 -51.1875 C 12.597656 -50.894531 13.132812 -50.554688 13.53125 -50.171875 C 14.101562 -49.691406 14.582031 -49.0625 14.96875 -48.28125 C 15.363281 -47.507812 15.753906 -46.878906 16.140625 -46.390625 C 16.523438 -45.910156 16.957031 -45.425781 17.4375 -44.9375 C 17.925781 -44.457031 18.03125 -43.679688 17.75 -42.609375 C 17.75 -42.515625 17.695312 -42.394531 17.59375 -42.25 C 17.5 -42.101562 17.40625 -41.929688 17.3125 -41.734375 C 16.914062 -41.054688 16.398438 -40.378906 15.765625 -39.703125 C 15.140625 -39.023438 14.585938 -38.296875 14.109375 -37.515625 C 13.910156 -37.234375 13.664062 -36.894531 13.375 -36.5 C 13.082031 -36.113281 12.890625 -35.726562 12.796875 -35.34375 C 12.703125 -34.851562 12.675781 -34.4375 12.71875 -34.09375 C 12.769531 -33.757812 12.695312 -33.351562 12.5 -32.875 C 12.3125 -31.90625 11.972656 -30.957031 11.484375 -30.03125 C 11.003906 -29.113281 10.664062 -28.117188 10.46875 -27.046875 C 10.375 -26.367188 10.203125 -25.664062 9.953125 -24.9375 C 9.710938 -24.21875 9.59375 -23.515625 9.59375 -22.828125 C 9.59375 -22.148438 9.691406 -21.472656 9.890625 -20.796875 C 10.085938 -20.117188 10.085938 -19.390625 9.890625 -18.609375 C 10.953125 -20.359375 11.847656 -22.273438 12.578125 -24.359375 C 13.304688 -26.441406 14.15625 -28.40625 15.125 -30.25 C 16.289062 -32.570312 17.476562 -34.945312 18.6875 -37.375 C 19.894531 -39.800781 21.179688 -42.128906 22.546875 -44.359375 C 23.703125 -46.203125 24.9375 -48.019531 26.25 -49.8125 C 27.5625 -51.601562 28.796875 -53.421875 29.953125 -55.265625 C 30.929688 -56.816406 32.191406 -58.460938 33.734375 -60.203125 C 35.285156 -61.953125 36.984375 -62.925781 38.828125 -63.125 C 40.578125 -63.414062 42.128906 -63.003906 43.484375 -61.890625 C 44.835938 -60.773438 45.851562 -59.367188 46.53125 -57.671875 C 47.21875 -55.972656 47.363281 -54.347656 46.96875 -52.796875 C 46.488281 -50.953125 45.785156 -49.132812 44.859375 -47.34375 C 43.941406 -45.550781 43.144531 -43.78125 42.46875 -42.03125 C 41.59375 -39.507812 40.789062 -36.9375 40.0625 -34.3125 C 39.34375 -31.695312 38.59375 -29.128906 37.8125 -26.609375 C 38.6875 -28.453125 39.65625 -30.242188 40.71875 -31.984375 C 41.789062 -33.734375 42.90625 -35.53125 44.0625 -37.375 L 41.15625 -33.453125 C 41.15625 -33.742188 41.757812 -34.738281 42.96875 -36.4375 C 44.1875 -38.132812 45.617188 -40.097656 47.265625 -42.328125 C 48.910156 -44.554688 50.4375 -46.566406 51.84375 -48.359375 C 53.25 -50.148438 54.144531 -51.238281 54.53125 -51.625 C 55.894531 -52.882812 57.566406 -54 59.546875 -54.96875 C 61.535156 -55.945312 63.425781 -56.289062 65.21875 -56 C 67.019531 -55.707031 68.257812 -54.203125 68.9375 -51.484375 C 69.90625 -47.992188 69.757812 -44.332031 68.5 -40.5 C 67.238281 -36.675781 65.976562 -33.210938 64.71875 -30.109375 C 63.550781 -27.390625 62.265625 -24.476562 60.859375 -21.375 C 59.453125 -18.269531 58.460938 -15.3125 57.890625 -12.5 C 58.078125 -12.894531 58.269531 -13.1875 58.46875 -13.375 C 58.46875 -13.375 58.394531 -12.789062 58.25 -11.625 C 58.101562 -10.46875 58.050781 -9.28125 58.09375 -8.0625 C 58.144531 -6.851562 58.363281 -6.203125 58.75 -6.109375 C 59.726562 -5.910156 60.894531 -6.441406 62.25 -7.703125 C 63.601562 -8.960938 64.910156 -10.367188 66.171875 -11.921875 C 67.429688 -13.472656 68.304688 -14.539062 68.796875 -15.125 C 70.734375 -17.351562 72.671875 -19.609375 74.609375 -21.890625 C 76.546875 -24.171875 78.4375 -26.425781 80.28125 -28.65625 C 80.476562 -28.84375 80.9375 -29.421875 81.65625 -30.390625 C 82.382812 -31.359375 83.234375 -32.351562 84.203125 -33.375 C 85.171875 -34.394531 86.039062 -35.125 86.8125 -35.5625 C 87.59375 -36 88.128906 -35.828125 88.421875 -35.046875 C 88.523438 -34.953125 88.550781 -34.90625 88.5 -34.90625 C 88.445312 -34.90625 88.421875 -34.90625 88.421875 -34.90625 Z M 36.21875 -44.5 L 36.359375 -44.65625 L 36.359375 -44.5 C 36.648438 -45.28125 37.0625 -46.394531 37.59375 -47.84375 C 38.125 -49.300781 38.554688 -50.78125 38.890625 -52.28125 C 39.234375 -53.78125 39.265625 -54.875 38.984375 -55.5625 C 39.171875 -54.78125 39 -53.46875 38.46875 -51.625 C 37.9375 -49.78125 37.351562 -47.984375 36.71875 -46.234375 C 36.09375 -44.492188 35.679688 -43.429688 35.484375 -43.046875 C 34.804688 -41.398438 34.054688 -39.726562 33.234375 -38.03125 C 32.410156 -36.332031 31.707031 -34.613281 31.125 -32.875 C 30.632812 -31.414062 30.171875 -29.765625 29.734375 -27.921875 C 29.304688 -26.078125 29.09375 -24.332031 29.09375 -22.6875 C 29.28125 -24.332031 29.664062 -25.976562 30.25 -27.625 C 30.832031 -29.28125 31.414062 -30.832031 32 -32.28125 C 32.769531 -34.226562 33.421875 -36.21875 33.953125 -38.25 C 34.492188 -40.28125 35.195312 -42.21875 36.0625 -44.0625 C 36.0625 -44.0625 36.085938 -44.109375 36.140625 -44.203125 C 36.191406 -44.304688 36.265625 -44.40625 36.359375 -44.5 Z M 36.21875 -44.5 "></path></g></g></g><g fill="#ffffff" fill-opacity="1"><g transform="translate(329.933803, 145.722903)"><g><path d="M 38.109375 -35.78125 C 38.398438 -34.414062 38.082031 -33.003906 37.15625 -31.546875 C 36.238281 -30.097656 35.390625 -28.890625 34.609375 -27.921875 C 33.347656 -26.078125 32.113281 -24.28125 30.90625 -22.53125 C 29.695312 -20.789062 28.410156 -19.050781 27.046875 -17.3125 C 25.597656 -15.363281 23.925781 -13.128906 22.03125 -10.609375 C 20.144531 -8.085938 17.941406 -6.539062 15.421875 -5.96875 C 15.023438 -5.96875 14.296875 -6.085938 13.234375 -6.328125 C 12.171875 -6.566406 11.175781 -6.851562 10.25 -7.1875 C 9.332031 -7.53125 8.875 -7.847656 8.875 -8.140625 L 9.15625 -8.140625 C 8.582031 -8.429688 8.363281 -8.429688 8.5 -8.140625 C 8.644531 -7.847656 8.285156 -8.039062 7.421875 -8.71875 C 6.742188 -9.207031 6.1875 -9.742188 5.75 -10.328125 C 5.3125 -10.910156 4.847656 -11.539062 4.359375 -12.21875 C 3.585938 -13.28125 2.765625 -14.34375 1.890625 -15.40625 C 1.015625 -16.476562 0.429688 -17.644531 0.140625 -18.90625 C 0.140625 -19.195312 0.113281 -19.828125 0.0625 -20.796875 C 0.0195312 -21.765625 0.046875 -22.6875 0.140625 -23.5625 C 0.242188 -24.4375 0.488281 -24.875 0.875 -24.875 C 1.0625 -24.875 1.109375 -24.75 1.015625 -24.5 C 0.921875 -24.257812 0.921875 -24.140625 1.015625 -24.140625 L 1.453125 -26.765625 C 1.253906 -26.472656 1.109375 -26.273438 1.015625 -26.171875 C 0.921875 -26.171875 0.96875 -26.703125 1.15625 -27.765625 C 1.351562 -28.835938 1.617188 -30.097656 1.953125 -31.546875 C 2.296875 -33.003906 2.613281 -34.316406 2.90625 -35.484375 C 3.195312 -36.648438 3.390625 -37.328125 3.484375 -37.515625 C 4.066406 -39.066406 4.625 -40.617188 5.15625 -42.171875 C 5.695312 -43.722656 6.691406 -44.9375 8.140625 -45.8125 C 9.210938 -46.582031 10.425781 -46.921875 11.78125 -46.828125 C 13.132812 -46.734375 14.492188 -46.394531 15.859375 -45.8125 C 16.429688 -45.613281 17.320312 -45.195312 18.53125 -44.5625 C 19.75 -43.9375 20.359375 -43.238281 20.359375 -42.46875 C 20.359375 -42.082031 20.210938 -41.789062 19.921875 -41.59375 C 19.628906 -41.394531 19.390625 -41.203125 19.203125 -41.015625 C 19.296875 -41.109375 19.488281 -41.15625 19.78125 -41.15625 C 19.976562 -41.0625 19.734375 -40.476562 19.046875 -39.40625 C 18.367188 -38.34375 17.9375 -37.859375 17.75 -37.953125 C 17.644531 -37.953125 17.640625 -38.097656 17.734375 -38.390625 C 17.835938 -38.679688 17.9375 -38.925781 18.03125 -39.125 C 15.320312 -34.664062 13.046875 -29.769531 11.203125 -24.4375 C 11.492188 -25.113281 11.976562 -26.25 12.65625 -27.84375 C 13.332031 -29.445312 14.035156 -30.953125 14.765625 -32.359375 C 15.492188 -33.765625 15.90625 -34.421875 16 -34.328125 C 16.09375 -34.328125 15.847656 -33.71875 15.265625 -32.5 C 14.679688 -31.289062 13.976562 -29.765625 13.15625 -27.921875 C 12.332031 -26.078125 11.601562 -24.207031 10.96875 -22.3125 C 10.34375 -20.425781 10.003906 -18.734375 9.953125 -17.234375 C 9.910156 -15.734375 10.375 -14.738281 11.34375 -14.25 C 12.113281 -13.863281 13.007812 -13.910156 14.03125 -14.390625 C 15.050781 -14.878906 16.046875 -15.507812 17.015625 -16.28125 C 17.984375 -17.0625 18.710938 -17.644531 19.203125 -18.03125 C 20.554688 -19.101562 22.082031 -20.289062 23.78125 -21.59375 C 25.476562 -22.90625 26.8125 -24.191406 27.78125 -25.453125 C 27.582031 -25.253906 27.242188 -25.15625 26.765625 -25.15625 C 26.660156 -25.351562 26.921875 -25.984375 27.546875 -27.046875 C 28.179688 -28.117188 29.007812 -29.332031 30.03125 -30.6875 C 31.050781 -32.039062 32.019531 -33.273438 32.9375 -34.390625 C 33.863281 -35.503906 34.472656 -36.160156 34.765625 -36.359375 C 35.242188 -36.742188 35.894531 -36.984375 36.71875 -37.078125 C 37.539062 -37.179688 38.003906 -36.75 38.109375 -35.78125 Z M 12.65625 -54.109375 C 12.65625 -54.109375 12.507812 -54.320312 12.21875 -54.75 C 11.925781 -55.1875 11.78125 -55.457031 11.78125 -55.5625 C 11.78125 -55.75 11.753906 -56.226562 11.703125 -57 C 11.660156 -57.78125 11.710938 -58.507812 11.859375 -59.1875 C 12.003906 -59.875 12.316406 -60.070312 12.796875 -59.78125 C 12.796875 -59.96875 13.0625 -60.375 13.59375 -61 C 14.125 -61.632812 14.148438 -61.46875 13.671875 -60.5 C 14.929688 -62.144531 16.09375 -64.132812 17.15625 -66.46875 L 15.421875 -63.84375 C 16.097656 -65.207031 16.820312 -66.929688 17.59375 -69.015625 C 18.375 -71.097656 18.8125 -72.378906 18.90625 -72.859375 C 18.90625 -72.960938 18.878906 -73.253906 18.828125 -73.734375 C 18.785156 -74.222656 18.8125 -74.515625 18.90625 -74.609375 C 17.351562 -75.191406 16.867188 -75.867188 17.453125 -76.640625 C 18.035156 -77.421875 18.664062 -78.050781 19.34375 -78.53125 C 19.050781 -78.53125 18.859375 -78.628906 18.765625 -78.828125 C 18.472656 -79.117188 18.617188 -79.359375 19.203125 -79.546875 C 19.785156 -79.742188 20.171875 -79.890625 20.359375 -79.984375 C 21.429688 -80.472656 22.546875 -80.617188 23.703125 -80.421875 C 24.867188 -80.234375 25.9375 -79.894531 26.90625 -79.40625 C 27.675781 -78.925781 28.398438 -78.195312 29.078125 -77.21875 C 29.765625 -76.25 30.253906 -75.332031 30.546875 -74.46875 C 30.835938 -73.5 30.710938 -72.523438 30.171875 -71.546875 C 29.640625 -70.578125 29.035156 -69.804688 28.359375 -69.234375 C 28.066406 -68.941406 27.703125 -68.671875 27.265625 -68.421875 C 26.828125 -68.179688 26.414062 -67.914062 26.03125 -67.625 C 25.644531 -67.144531 25.398438 -66.585938 25.296875 -65.953125 C 25.203125 -65.328125 24.960938 -64.769531 24.578125 -64.28125 C 24.378906 -63.894531 24.085938 -63.601562 23.703125 -63.40625 C 23.316406 -63.21875 23.023438 -62.925781 22.828125 -62.53125 C 22.253906 -62.144531 22.207031 -61.710938 22.6875 -61.234375 C 22.101562 -60.941406 21.617188 -60.601562 21.234375 -60.21875 C 20.554688 -59.050781 19.925781 -58.101562 19.34375 -57.375 C 18.757812 -56.644531 18.03125 -55.941406 17.15625 -55.265625 C 17.9375 -55.753906 18.640625 -56.265625 19.265625 -56.796875 C 19.898438 -57.328125 20.554688 -58.078125 21.234375 -59.046875 C 22.398438 -60.503906 23.804688 -61.570312 25.453125 -62.25 C 24.773438 -61.46875 24.238281 -60.640625 23.84375 -59.765625 C 23.457031 -58.898438 22.832031 -58.175781 21.96875 -57.59375 C 21.382812 -57.300781 21.066406 -57.226562 21.015625 -57.375 C 20.960938 -57.519531 20.9375 -57.613281 20.9375 -57.65625 C 20.9375 -57.707031 20.597656 -57.441406 19.921875 -56.859375 C 19.921875 -56.859375 20.039062 -56.882812 20.28125 -56.9375 C 20.53125 -56.988281 20.554688 -56.914062 20.359375 -56.71875 C 19.679688 -56.132812 19.003906 -55.453125 18.328125 -54.671875 C 17.648438 -53.898438 16.875 -53.320312 16 -52.9375 C 15.613281 -52.84375 15.222656 -52.695312 14.828125 -52.5 C 14.441406 -52.3125 14.007812 -52.3125 13.53125 -52.5 C 13.039062 -52.789062 12.816406 -53.082031 12.859375 -53.375 C 12.910156 -53.664062 12.84375 -53.910156 12.65625 -54.109375 Z M 9.890625 -19.484375 C 9.984375 -19.679688 9.984375 -19.734375 9.890625 -19.640625 L 9.59375 -18.46875 L 9.890625 -19.34375 Z M 14.6875 -62.6875 L 15.265625 -63.5625 C 15.171875 -63.269531 15.050781 -63.050781 14.90625 -62.90625 C 14.757812 -62.757812 14.6875 -62.6875 14.6875 -62.6875 Z M 13.234375 -59.921875 C 13.140625 -59.828125 13.039062 -59.78125 12.9375 -59.78125 C 13.039062 -59.78125 13.09375 -59.753906 13.09375 -59.703125 C 13.09375 -59.648438 13.09375 -59.625 13.09375 -59.625 C 13.1875 -59.726562 13.234375 -59.828125 13.234375 -59.921875 Z M 13.234375 -59.921875 "></path></g></g></g></g></g></svg></g></g></svg>